<svg width="1000" height="315" viewBox="0 0 1000 315" fill="none" xmlns="http://www.w3.org/2000/svg">
<g clip-path="url(#clip0_112_105)">
<g clip-path="url(#clip1_112_105)">
<g clip-path="url(#clip2_112_105)">
<g clip-path="url(#clip3_112_105)">
<g clip-path="url(#clip4_112_105)">
<g clip-path="url(#clip5_112_105)">
<path d="M997.734 187.55H395.147C395.139 187.55 395.132 187.557 395.132 187.565V195.815C395.132 195.824 395.139 195.83 395.147 195.83H997.734C997.742 195.83 997.749 195.824 997.749 195.815V187.565C997.749 187.557 997.742 187.55 997.734 187.55Z" fill="#EA3C12"/>
<g clip-path="url(#clip6_112_105)">
<g clip-path="url(#clip7_112_105)">
<path d="M408.276 177.796H396.659V85.9775H422.833C427.965 85.9775 432.659 86.444 436.914 87.3771C441.15 88.3103 444.761 89.8219 447.747 91.9121C450.733 94.0209 453.066 96.8016 454.746 100.254C456.425 103.707 457.265 107.952 457.265 112.991C457.265 117.843 456.453 122.042 454.829 125.588C453.187 129.134 450.873 132.073 447.887 134.406C444.901 136.739 441.337 138.484 437.194 139.641C433.032 140.817 428.432 141.404 423.393 141.404H408.276V177.796ZM408.276 95.3553V131.887H421.993C430.018 131.887 435.971 130.366 439.853 127.324C443.716 124.3 445.648 119.523 445.648 112.991C445.648 106.366 443.623 101.766 439.573 99.1904C435.505 96.6336 429.458 95.3553 421.433 95.3553H408.276ZM530.188 177.796H475.881V85.9775H528.788V95.7752H487.498V124.608H522.35V134.546H487.498V167.858H530.188V177.796ZM603.95 177.796H549.643V85.9775H602.551V95.7752H561.26V124.608H596.112V134.546H561.26V167.858H603.95V177.796ZM634.995 177.796H623.378V85.9775H652.071C656.737 85.9775 661.057 86.416 665.032 87.2932C668.988 88.189 672.394 89.6633 675.25 91.7161C678.086 93.769 680.298 96.4284 681.884 99.6942C683.47 102.96 684.263 106.973 684.263 111.731C684.263 118.916 682.397 124.655 678.665 128.947C674.932 133.24 669.894 136.179 663.548 137.765L686.923 177.796H673.766L651.651 139.025H634.995V177.796ZM634.995 95.3553V129.507H650.391C657.576 129.507 663.082 128.042 666.908 125.112C670.733 122.164 672.646 117.703 672.646 111.731C672.646 105.666 670.733 101.421 666.908 98.9944C663.082 96.5683 657.576 95.3553 650.391 95.3553H634.995ZM714.636 177.796H703.019V85.9775H729.193C734.325 85.9775 739.009 86.444 743.246 87.3771C747.501 88.3103 751.121 89.8219 754.107 91.9121C757.093 94.0209 759.426 96.8016 761.105 100.254C762.785 103.707 763.625 107.952 763.625 112.991C763.625 117.843 762.813 122.042 761.189 125.588C759.547 129.134 757.233 132.073 754.247 134.406C751.261 136.739 747.697 138.484 743.554 139.641C739.392 140.817 734.792 141.404 729.753 141.404H714.636V177.796ZM714.636 95.3553V131.887H728.353C736.378 131.887 742.331 130.366 746.213 127.324C750.076 124.3 752.008 119.523 752.008 112.991C752.008 106.366 749.983 101.766 745.933 99.1904C741.865 96.6336 735.818 95.3553 727.793 95.3553H714.636ZM793.858 177.796H782.24V85.9775H810.934C815.599 85.9775 819.91 86.416 823.867 87.2932C827.842 88.189 831.248 89.6633 834.084 91.7161C836.94 93.769 839.16 96.4284 840.747 99.6942C842.333 102.96 843.126 106.973 843.126 111.731C843.126 118.916 841.26 124.655 837.527 128.947C833.795 133.24 828.756 136.179 822.411 137.765L845.785 177.796H832.629L810.514 139.025H793.858V177.796ZM793.858 95.3553V129.507H809.254C816.439 129.507 821.944 128.042 825.77 125.112C829.596 122.164 831.509 117.703 831.509 111.731C831.509 105.666 829.596 101.421 825.77 98.9944C821.944 96.5683 816.439 95.3553 809.254 95.3553H793.858ZM916.189 177.796H861.882V85.9775H914.789V95.7752H873.499V124.608H908.323V134.546H873.499V167.858H916.189V177.796ZM947.234 177.796H935.616V85.9775H961.79C966.922 85.9775 971.616 86.444 975.871 87.3771C980.107 88.3103 983.718 89.8219 986.704 91.9121C989.69 94.0209 992.023 96.8016 993.703 100.254C995.382 103.707 996.222 107.952 996.222 112.991C996.222 117.843 995.41 122.042 993.787 125.588C992.144 129.134 989.83 132.073 986.844 134.406C983.858 136.739 980.294 138.484 976.151 139.641C971.989 140.817 967.389 141.404 962.35 141.404H947.234V177.796ZM947.234 95.3553V131.887H960.95C968.975 131.887 974.928 130.366 978.81 127.324C982.673 124.3 984.605 119.523 984.605 112.991C984.605 106.366 982.58 101.766 978.53 99.1904C974.462 96.6336 968.415 95.3553 960.391 95.3553H947.234Z" fill="#EA3C12"/>
</g>
</g>
<g clip-path="url(#clip8_112_105)">
<g clip-path="url(#clip9_112_105)">
<path d="M407.415 218.822L409.409 219.57C409.06 220.501 408.562 221.302 407.914 221.974C407.266 222.648 406.506 223.16 405.635 223.509C404.761 223.858 403.809 224.033 402.778 224.033C401.216 224.033 399.866 223.687 398.729 222.996C397.589 222.308 396.708 221.332 396.087 220.069C395.462 218.806 395.15 217.302 395.15 215.557C395.15 213.812 395.462 212.307 396.087 211.044C396.708 209.781 397.589 208.804 398.729 208.113C399.866 207.424 401.199 207.08 402.728 207.08C403.792 207.08 404.739 207.225 405.57 207.514C406.401 207.807 407.113 208.239 407.704 208.811C408.293 209.386 408.761 210.089 409.11 210.92L407.141 211.842C406.775 210.895 406.248 210.175 405.56 209.683C404.869 209.195 403.975 208.95 402.878 208.95C401.764 208.95 400.784 209.211 399.936 209.733C399.088 210.258 398.429 211.011 397.957 211.992C397.481 212.972 397.244 214.161 397.244 215.557C397.244 216.936 397.468 218.119 397.917 219.107C398.366 220.097 399.005 220.853 399.836 221.375C400.667 221.9 401.648 222.163 402.778 222.163C403.875 222.163 404.831 221.884 405.645 221.325C406.459 220.77 407.049 219.936 407.415 218.822ZM418.035 211.069C419.215 211.069 420.257 211.327 421.161 211.842C422.069 212.357 422.78 213.1 423.295 214.071C423.811 215.045 424.068 216.205 424.068 217.551C424.068 218.897 423.811 220.056 423.295 221.026C422.78 222 422.069 222.745 421.161 223.26C420.257 223.775 419.215 224.033 418.035 224.033C416.872 224.033 415.833 223.775 414.919 223.26C414.005 222.745 413.29 222 412.775 221.026C412.26 220.056 412.002 218.897 412.002 217.551C412.002 216.205 412.26 215.045 412.775 214.071C413.29 213.1 414.005 212.357 414.919 211.842C415.833 211.327 416.872 211.069 418.035 211.069ZM418.035 212.789C417.188 212.789 416.465 212.981 415.866 213.363C415.268 213.745 414.806 214.289 414.48 214.993C414.158 215.701 413.997 216.554 413.997 217.551C413.997 218.532 414.158 219.379 414.48 220.094C414.806 220.809 415.268 221.357 415.866 221.739C416.465 222.122 417.188 222.313 418.035 222.313C418.883 222.313 419.606 222.122 420.204 221.739C420.802 221.357 421.263 220.809 421.585 220.094C421.911 219.379 422.074 218.532 422.074 217.551C422.074 216.554 421.911 215.701 421.585 214.993C421.263 214.289 420.802 213.745 420.204 213.363C419.606 212.981 418.883 212.789 418.035 212.789ZM432.694 224.033C431.664 224.033 430.716 223.775 429.852 223.26C428.988 222.745 428.298 222 427.783 221.026C427.268 220.056 427.01 218.897 427.01 217.551C427.01 216.172 427.284 215 427.833 214.036C428.381 213.072 429.104 212.336 430.002 211.827C430.899 211.322 431.863 211.069 432.894 211.069C433.924 211.069 434.816 211.335 435.571 211.867C436.329 212.399 436.832 213.105 437.082 213.986L436.832 214.161V205.585H438.827V223.784H437.082L436.907 220.767L437.181 220.617C437.065 221.349 436.786 221.967 436.344 222.472C435.905 222.981 435.365 223.368 434.723 223.634C434.085 223.9 433.409 224.033 432.694 224.033ZM432.894 222.288C433.691 222.288 434.384 222.088 434.973 221.689C435.564 221.291 436.021 220.72 436.344 219.979C436.67 219.241 436.832 218.374 436.832 217.377C436.832 216.429 436.67 215.615 436.344 214.933C436.021 214.252 435.573 213.728 434.998 213.363C434.426 212.997 433.758 212.814 432.993 212.814C431.73 212.814 430.75 213.246 430.052 214.111C429.353 214.975 429.004 216.122 429.004 217.551C429.004 218.98 429.345 220.127 430.027 220.991C430.708 221.856 431.664 222.288 432.894 222.288ZM448.669 224.033C447.489 224.033 446.439 223.775 445.518 223.26C444.594 222.745 443.874 222 443.359 221.026C442.844 220.056 442.586 218.897 442.586 217.551C442.586 216.205 442.844 215.045 443.359 214.071C443.874 213.1 444.581 212.357 445.478 211.842C446.376 211.327 447.398 211.069 448.545 211.069C449.708 211.069 450.702 211.319 451.526 211.817C452.347 212.316 452.974 212.992 453.406 213.846C453.838 214.704 454.054 215.665 454.054 216.728C454.054 217.011 454.046 217.269 454.029 217.501C454.013 217.734 453.988 217.942 453.954 218.124H443.883V216.354H453.082L452.06 216.554C452.06 215.357 451.732 214.435 451.077 213.787C450.419 213.138 449.558 212.814 448.495 212.814C447.68 212.814 446.979 213 446.391 213.373C445.799 213.748 445.342 214.289 445.019 214.993C444.694 215.701 444.531 216.554 444.531 217.551C444.531 218.532 444.697 219.379 445.029 220.094C445.362 220.809 445.832 221.352 446.44 221.724C447.045 222.1 447.772 222.288 448.619 222.288C449.533 222.288 450.278 222.113 450.853 221.764C451.425 221.415 451.885 220.942 452.234 220.343L453.805 221.266C453.489 221.831 453.087 222.321 452.598 222.736C452.106 223.152 451.533 223.471 450.878 223.694C450.22 223.92 449.484 224.033 448.669 224.033ZM471.505 211.069C472.369 211.069 473.129 211.202 473.784 211.468C474.442 211.734 475.012 212.116 475.494 212.615C475.976 213.114 476.366 213.704 476.666 214.385L474.771 215.282C474.505 214.485 474.101 213.873 473.559 213.448C473.021 213.025 472.319 212.814 471.455 212.814C470.624 212.814 469.91 213 469.311 213.373C468.713 213.748 468.256 214.289 467.94 214.993C467.624 215.701 467.466 216.554 467.466 217.551C467.466 218.532 467.624 219.379 467.94 220.094C468.256 220.809 468.713 221.352 469.311 221.724C469.91 222.1 470.624 222.288 471.455 222.288C472.103 222.288 472.663 222.188 473.136 221.989C473.611 221.789 474.001 221.498 474.307 221.116C474.616 220.734 474.829 220.268 474.945 219.72L476.79 220.368C476.508 221.133 476.12 221.789 475.629 222.338C475.14 222.886 474.55 223.305 473.858 223.594C473.17 223.887 472.386 224.033 471.505 224.033C470.342 224.033 469.303 223.775 468.389 223.26C467.475 222.745 466.76 222 466.245 221.026C465.73 220.056 465.472 218.897 465.472 217.551C465.472 216.205 465.73 215.045 466.245 214.071C466.76 213.1 467.475 212.357 468.389 211.842C469.303 211.327 470.342 211.069 471.505 211.069ZM482.3 223.784H480.305V205.585H482.3V213.188C482.732 212.44 483.305 211.9 484.02 211.568C484.735 211.235 485.516 211.069 486.363 211.069C487.261 211.069 488.075 211.239 488.806 211.578C489.538 211.92 490.123 212.44 490.562 213.138C491.004 213.836 491.225 214.726 491.225 215.806V223.784H489.23V216.504C489.23 215.125 488.934 214.164 488.343 213.622C487.754 213.084 487.028 212.814 486.164 212.814C485.566 212.814 484.967 212.956 484.369 213.238C483.771 213.521 483.275 213.981 482.883 214.619C482.494 215.261 482.3 216.113 482.3 217.177V223.784ZM503.012 219.171V215.731C503.012 214.8 502.762 214.081 502.264 213.572C501.765 213.067 501.059 212.814 500.145 212.814C499.28 212.814 498.549 213 497.951 213.373C497.352 213.748 496.912 214.352 496.63 215.183L495.009 214.185C495.341 213.255 495.956 212.502 496.854 211.927C497.751 211.355 498.865 211.069 500.195 211.069C501.092 211.069 501.906 211.222 502.638 211.528C503.369 211.837 503.947 212.302 504.373 212.924C504.795 213.549 505.006 214.352 505.006 215.332V221.365C505.006 221.964 505.322 222.263 505.953 222.263C506.269 222.263 506.577 222.221 506.876 222.138L506.776 223.709C506.444 223.875 506.011 223.958 505.48 223.958C504.998 223.958 504.566 223.867 504.183 223.684C503.801 223.501 503.502 223.222 503.286 222.846C503.07 222.474 502.962 222.005 502.962 221.44V221.191L503.46 221.266C503.261 221.914 502.92 222.441 502.438 222.846C501.956 223.255 501.416 223.554 500.818 223.744C500.219 223.936 499.629 224.033 499.048 224.033C498.316 224.033 497.635 223.908 497.003 223.659C496.372 223.41 495.87 223.031 495.498 222.522C495.122 222.017 494.934 221.39 494.934 220.642C494.934 219.712 495.247 218.942 495.872 218.334C496.493 217.729 497.361 217.318 498.474 217.102L503.41 216.13V217.775L499.397 218.598C498.582 218.764 497.976 218.997 497.577 219.296C497.178 219.595 496.979 220.011 496.979 220.543C496.979 221.058 497.183 221.477 497.592 221.799C497.997 222.125 498.574 222.288 499.322 222.288C499.804 222.288 500.266 222.225 500.708 222.098C501.147 221.975 501.541 221.784 501.89 221.525C502.239 221.269 502.513 220.945 502.712 220.553C502.912 220.164 503.012 219.703 503.012 219.171ZM509.743 205.585H511.737V220.617C511.737 221.249 511.853 221.684 512.086 221.924C512.319 222.166 512.693 222.288 513.208 222.288C513.54 222.288 513.815 222.263 514.031 222.213C514.247 222.163 514.538 222.072 514.903 221.939L514.579 223.684C514.313 223.8 514.022 223.888 513.707 223.948C513.391 224.005 513.067 224.033 512.734 224.033C511.72 224.033 510.969 223.759 510.481 223.21C509.989 222.662 509.743 221.822 509.743 220.692V205.585ZM517.371 205.585H519.366V220.617C519.366 221.249 519.482 221.684 519.715 221.924C519.947 222.166 520.321 222.288 520.837 222.288C521.169 222.288 521.443 222.263 521.659 222.213C521.875 222.163 522.166 222.072 522.532 221.939L522.208 223.684C521.942 223.8 521.651 223.888 521.335 223.948C521.019 224.005 520.695 224.033 520.363 224.033C519.349 224.033 518.596 223.759 518.104 223.21C517.616 222.662 517.371 221.822 517.371 220.692V205.585ZM530.31 224.033C529.13 224.033 528.078 223.775 527.154 223.26C526.233 222.745 525.515 222 525 221.026C524.485 220.056 524.227 218.897 524.227 217.551C524.227 216.205 524.485 215.045 525 214.071C525.515 213.1 526.221 212.357 527.119 211.842C528.016 211.327 529.039 211.069 530.185 211.069C531.349 211.069 532.341 211.319 533.162 211.817C533.986 212.316 534.615 212.992 535.047 213.846C535.479 214.704 535.695 215.665 535.695 216.728C535.695 217.011 535.686 217.269 535.67 217.501C535.653 217.734 535.628 217.942 535.595 218.124H525.523V216.354H534.723L533.7 216.554C533.7 215.357 533.371 214.435 532.713 213.787C532.058 213.138 531.199 212.814 530.135 212.814C529.321 212.814 528.618 213 528.026 213.373C527.438 213.748 526.981 214.289 526.655 214.993C526.333 215.701 526.172 216.554 526.172 217.551C526.172 218.532 526.338 219.379 526.67 220.094C527.003 220.809 527.471 221.352 528.076 221.724C528.684 222.1 529.412 222.288 530.26 222.288C531.174 222.288 531.917 222.113 532.489 221.764C533.064 221.415 533.526 220.942 533.875 220.343L535.445 221.266C535.13 221.831 534.726 222.321 534.234 222.736C533.745 223.152 533.172 223.471 532.514 223.694C531.859 223.92 531.124 224.033 530.31 224.033ZM541.474 223.784H539.479V211.319H541.224L541.399 214.111L541.075 213.836C541.341 213.172 541.698 212.635 542.147 212.226C542.595 211.82 543.116 211.526 543.707 211.343C544.296 211.161 544.906 211.069 545.537 211.069C546.435 211.069 547.249 211.239 547.98 211.578C548.712 211.92 549.298 212.44 549.74 213.138C550.179 213.836 550.398 214.726 550.398 215.806V223.784H548.404V216.504C548.404 215.125 548.11 214.164 547.522 213.622C546.93 213.084 546.202 212.814 545.338 212.814C544.739 212.814 544.141 212.956 543.543 213.238C542.944 213.521 542.451 213.978 542.062 214.609C541.67 215.241 541.474 216.088 541.474 217.152V223.784ZM565.406 209.025L565.855 210.795C565.838 210.795 565.814 210.795 565.78 210.795C565.747 210.795 565.714 210.795 565.681 210.795C564.866 210.795 564.24 210.956 563.801 211.279C563.359 211.604 563.138 212.125 563.138 212.839L561.916 212.216C561.916 211.568 562.066 211.003 562.365 210.521C562.664 210.039 563.071 209.668 563.586 209.409C564.102 209.153 564.667 209.025 565.282 209.025C565.298 209.025 565.32 209.025 565.347 209.025C565.37 209.025 565.39 209.025 565.406 209.025ZM557.977 222.188H561.617C562.797 222.188 563.719 222.457 564.384 222.996C565.049 223.538 565.381 224.257 565.381 225.155C565.381 225.969 565.112 226.675 564.574 227.274C564.032 227.872 563.309 228.334 562.405 228.66C561.497 228.982 560.479 229.143 559.348 229.143C557.387 229.143 555.921 228.811 554.951 228.146C553.977 227.481 553.49 226.684 553.49 225.753C553.49 225.088 553.711 224.495 554.153 223.973C554.592 223.448 555.335 223.152 556.382 223.086L556.207 223.459C555.642 223.31 555.165 223.056 554.776 222.697C554.384 222.341 554.188 221.822 554.188 221.141C554.188 220.46 554.442 219.873 554.951 219.381C555.456 218.892 556.207 218.59 557.204 218.473L558.526 219.147H558.276C557.462 219.23 556.885 219.432 556.546 219.755C556.204 220.081 556.033 220.435 556.033 220.817C556.033 221.282 556.204 221.626 556.546 221.849C556.885 222.075 557.362 222.188 557.977 222.188ZM559.323 227.473C560.287 227.473 561.082 227.373 561.707 227.174C562.328 226.975 562.789 226.717 563.088 226.401C563.387 226.085 563.537 225.745 563.537 225.379C563.537 224.93 563.359 224.573 563.003 224.307C562.644 224.041 561.999 223.908 561.069 223.908H557.229C556.697 223.908 556.249 224.044 555.883 224.317C555.517 224.593 555.335 224.972 555.335 225.454C555.335 226.069 555.689 226.559 556.397 226.925C557.101 227.29 558.077 227.473 559.323 227.473ZM559.149 211.069C560.146 211.069 561.032 211.247 561.806 211.603C562.578 211.962 563.179 212.457 563.611 213.089C564.044 213.72 564.26 214.451 564.26 215.282C564.26 216.097 564.044 216.823 563.611 217.461C563.179 218.103 562.578 218.601 561.806 218.957C561.032 219.316 560.146 219.496 559.149 219.496C557.504 219.496 556.24 219.1 555.36 218.309C554.479 217.521 554.038 216.512 554.038 215.282C554.038 214.451 554.259 213.72 554.701 213.089C555.14 212.457 555.742 211.962 556.506 211.603C557.271 211.247 558.152 211.069 559.149 211.069ZM559.149 212.69C558.285 212.69 557.562 212.926 556.98 213.398C556.398 213.873 556.107 214.501 556.107 215.282C556.107 216.047 556.398 216.67 556.98 217.152C557.562 217.634 558.285 217.875 559.149 217.875C560.013 217.875 560.736 217.634 561.318 217.152C561.9 216.67 562.19 216.047 562.19 215.282C562.19 214.501 561.9 213.873 561.318 213.398C560.736 212.926 560.013 212.69 559.149 212.69ZM573.384 224.033C572.204 224.033 571.152 223.775 570.228 223.26C569.307 222.745 568.589 222 568.074 221.026C567.559 220.056 567.301 218.897 567.301 217.551C567.301 216.205 567.559 215.045 568.074 214.071C568.589 213.1 569.295 212.357 570.193 211.842C571.09 211.327 572.113 211.069 573.259 211.069C574.423 211.069 575.415 211.319 576.236 211.817C577.06 212.316 577.689 212.992 578.121 213.846C578.553 214.704 578.769 215.665 578.769 216.728C578.769 217.011 578.761 217.269 578.744 217.501C578.727 217.734 578.702 217.942 578.669 218.124H568.597V216.354H577.797L576.774 216.554C576.774 215.357 576.445 214.435 575.787 213.787C575.132 213.138 574.273 212.814 573.209 212.814C572.395 212.814 571.692 213 571.1 213.373C570.512 213.748 570.055 214.289 569.729 214.993C569.407 215.701 569.246 216.554 569.246 217.551C569.246 218.532 569.412 219.379 569.744 220.094C570.077 220.809 570.545 221.352 571.15 221.724C571.759 222.1 572.486 222.288 573.334 222.288C574.248 222.288 574.991 222.113 575.563 221.764C576.138 221.415 576.6 220.942 576.949 220.343L578.52 221.266C578.204 221.831 577.8 222.321 577.308 222.736C576.819 223.152 576.246 223.471 575.588 223.694C574.933 223.92 574.198 224.033 573.384 224.033ZM596.215 211.069C597.079 211.069 597.84 211.202 598.498 211.468C599.153 211.734 599.722 212.116 600.204 212.615C600.686 213.114 601.076 213.704 601.375 214.385L599.481 215.282C599.215 214.485 598.813 213.873 598.274 213.448C597.732 213.025 597.029 212.814 596.165 212.814C595.334 212.814 594.619 213 594.021 213.373C593.423 213.748 592.966 214.289 592.65 214.993C592.334 215.701 592.176 216.554 592.176 217.551C592.176 218.532 592.334 219.379 592.65 220.094C592.966 220.809 593.423 221.352 594.021 221.724C594.619 222.1 595.334 222.288 596.165 222.288C596.813 222.288 597.375 222.188 597.85 221.989C598.322 221.789 598.713 221.498 599.022 221.116C599.328 220.734 599.539 220.268 599.655 219.72L601.5 220.368C601.217 221.133 600.832 221.789 600.343 222.338C599.851 222.886 599.261 223.305 598.573 223.594C597.882 223.887 597.096 224.033 596.215 224.033C595.051 224.033 594.013 223.775 593.099 223.26C592.184 222.745 591.47 222 590.955 221.026C590.439 220.056 590.182 218.897 590.182 217.551C590.182 216.205 590.439 215.045 590.955 214.071C591.47 213.1 592.184 212.357 593.099 211.842C594.013 211.327 595.051 211.069 596.215 211.069ZM610.176 211.069C611.356 211.069 612.399 211.327 613.307 211.842C614.211 212.357 614.921 213.1 615.436 214.071C615.951 215.045 616.209 216.205 616.209 217.551C616.209 218.897 615.951 220.056 615.436 221.026C614.921 222 614.211 222.745 613.307 223.26C612.399 223.775 611.356 224.033 610.176 224.033C609.012 224.033 607.973 223.775 607.059 223.26C606.145 222.745 605.431 222 604.915 221.026C604.4 220.056 604.143 218.897 604.143 217.551C604.143 216.205 604.4 215.045 604.915 214.071C605.431 213.1 606.145 212.357 607.059 211.842C607.973 211.327 609.012 211.069 610.176 211.069ZM610.176 212.789C609.328 212.789 608.605 212.981 608.007 213.363C607.408 213.745 606.948 214.289 606.626 214.993C606.3 215.701 606.137 216.554 606.137 217.551C606.137 218.532 606.3 219.379 606.626 220.094C606.948 220.809 607.408 221.357 608.007 221.739C608.605 222.122 609.328 222.313 610.176 222.313C611.023 222.313 611.746 222.122 612.345 221.739C612.943 221.357 613.405 220.809 613.731 220.094C614.053 219.379 614.214 218.532 614.214 217.551C614.214 216.554 614.053 215.701 613.731 214.993C613.405 214.289 612.943 213.745 612.345 213.363C611.746 212.981 611.023 212.789 610.176 212.789ZM619.873 205.585H621.868V220.617C621.868 221.249 621.984 221.684 622.217 221.924C622.449 222.166 622.823 222.288 623.339 222.288C623.671 222.288 623.945 222.263 624.161 222.213C624.377 222.163 624.668 222.072 625.034 221.939L624.71 223.684C624.444 223.8 624.153 223.888 623.837 223.948C623.521 224.005 623.197 224.033 622.865 224.033C621.851 224.033 621.098 223.759 620.606 223.21C620.118 222.662 619.873 221.822 619.873 220.692V205.585ZM627.502 205.585H629.496V220.617C629.496 221.249 629.613 221.684 629.845 221.924C630.078 222.166 630.452 222.288 630.967 222.288C631.3 222.288 631.574 222.263 631.79 222.213C632.006 222.163 632.297 222.072 632.662 221.939L632.338 223.684C632.072 223.8 631.782 223.888 631.466 223.948C631.15 224.005 630.826 224.033 630.494 224.033C629.48 224.033 628.727 223.759 628.235 223.21C627.746 222.662 627.502 221.822 627.502 220.692V205.585ZM642.505 219.171V215.731C642.505 214.8 642.256 214.081 641.757 213.572C641.258 213.067 640.552 212.814 639.638 212.814C638.774 212.814 638.042 213 637.444 213.373C636.846 213.748 636.405 214.352 636.123 215.183L634.502 214.185C634.835 213.255 635.45 212.502 636.347 211.927C637.245 211.355 638.358 211.069 639.688 211.069C640.585 211.069 641.4 211.222 642.131 211.528C642.862 211.837 643.441 212.302 643.866 212.924C644.288 213.549 644.499 214.352 644.499 215.332V221.365C644.499 221.964 644.815 222.263 645.447 222.263C645.762 222.263 646.07 222.221 646.369 222.138L646.269 223.709C645.937 223.875 645.505 223.958 644.973 223.958C644.491 223.958 644.059 223.867 643.677 223.684C643.294 223.501 642.995 223.222 642.779 222.846C642.563 222.474 642.455 222.005 642.455 221.44V221.191L642.954 221.266C642.754 221.914 642.413 222.441 641.931 222.846C641.449 223.255 640.909 223.554 640.311 223.744C639.713 223.936 639.123 224.033 638.541 224.033C637.81 224.033 637.128 223.908 636.497 223.659C635.865 223.41 635.363 223.031 634.991 222.522C634.615 222.017 634.427 221.39 634.427 220.642C634.427 219.712 634.74 218.942 635.365 218.334C635.986 217.729 636.854 217.318 637.968 217.102L642.904 216.13V217.775L638.89 218.598C638.076 218.764 637.469 218.997 637.07 219.296C636.671 219.595 636.472 220.011 636.472 220.543C636.472 221.058 636.676 221.477 637.085 221.799C637.491 222.125 638.067 222.288 638.815 222.288C639.297 222.288 639.759 222.225 640.201 222.098C640.64 221.975 641.034 221.784 641.383 221.525C641.732 221.269 642.006 220.945 642.206 220.553C642.405 220.164 642.505 219.703 642.505 219.171ZM655.443 224.033C654.745 224.033 654.097 223.908 653.499 223.659C652.901 223.41 652.385 223.061 651.953 222.612C651.521 222.163 651.197 221.656 650.981 221.091L651.255 220.742L651.081 223.784H649.336V205.585H651.33V214.136L651.081 213.762C651.413 212.981 651.975 212.336 652.766 211.827C653.554 211.322 654.455 211.069 655.468 211.069C656.499 211.069 657.446 211.327 658.31 211.842C659.175 212.357 659.864 213.097 660.38 214.061C660.895 215.025 661.152 216.188 661.152 217.551C661.152 218.897 660.891 220.056 660.37 221.026C659.844 222 659.15 222.745 658.285 223.26C657.421 223.775 656.474 224.033 655.443 224.033ZM655.244 222.288C656.474 222.288 657.435 221.856 658.126 220.991C658.814 220.127 659.158 218.98 659.158 217.551C659.158 216.122 658.817 214.975 658.136 214.111C657.454 213.246 656.499 212.814 655.269 212.814C654.488 212.814 653.803 213.014 653.215 213.413C652.623 213.812 652.161 214.368 651.829 215.083C651.496 215.798 651.33 216.637 651.33 217.601C651.33 218.548 651.493 219.374 651.819 220.079C652.141 220.787 652.598 221.332 653.19 221.714C653.778 222.097 654.463 222.288 655.244 222.288ZM670.127 211.069C671.307 211.069 672.349 211.327 673.253 211.842C674.161 212.357 674.872 213.1 675.387 214.071C675.903 215.045 676.16 216.205 676.16 217.551C676.16 218.897 675.903 220.056 675.387 221.026C674.872 222 674.161 222.745 673.253 223.26C672.349 223.775 671.307 224.033 670.127 224.033C668.964 224.033 667.925 223.775 667.011 223.26C666.097 222.745 665.382 222 664.867 221.026C664.352 220.056 664.094 218.897 664.094 217.551C664.094 216.205 664.352 215.045 664.867 214.071C665.382 213.1 666.097 212.357 667.011 211.842C667.925 211.327 668.964 211.069 670.127 211.069ZM670.127 212.789C669.28 212.789 668.557 212.981 667.958 213.363C667.36 213.745 666.898 214.289 666.572 214.993C666.25 215.701 666.089 216.554 666.089 217.551C666.089 218.532 666.25 219.379 666.572 220.094C666.898 220.809 667.36 221.357 667.958 221.739C668.557 222.122 669.28 222.313 670.127 222.313C670.975 222.313 671.698 222.122 672.296 221.739C672.894 221.357 673.355 220.809 673.677 220.094C674.003 219.379 674.166 218.532 674.166 217.551C674.166 216.554 674.003 215.701 673.677 214.993C673.355 214.289 672.894 213.745 672.296 213.363C671.698 212.981 670.975 212.789 670.127 212.789ZM681.919 223.784H679.925V211.319H681.545L681.819 213.363C682.168 212.598 682.679 212.025 683.35 211.643C684.025 211.26 684.844 211.069 685.808 211.069C686.024 211.069 686.26 211.086 686.516 211.119C686.775 211.152 686.996 211.219 687.179 211.319L686.83 213.138C686.647 213.072 686.448 213.022 686.232 212.989C686.016 212.956 685.708 212.939 685.31 212.939C684.794 212.939 684.274 213.089 683.749 213.388C683.227 213.687 682.792 214.139 682.443 214.744C682.094 215.352 681.919 216.122 681.919 217.052V223.784ZM697.371 219.171V215.731C697.371 214.8 697.121 214.081 696.623 213.572C696.124 213.067 695.418 212.814 694.504 212.814C693.639 212.814 692.908 213 692.31 213.373C691.712 213.748 691.271 214.352 690.989 215.183L689.368 214.185C689.701 213.255 690.316 212.502 691.213 211.927C692.11 211.355 693.224 211.069 694.554 211.069C695.451 211.069 696.265 211.222 696.997 211.528C697.728 211.837 698.306 212.302 698.732 212.924C699.154 213.549 699.365 214.352 699.365 215.332V221.365C699.365 221.964 699.681 222.263 700.312 222.263C700.628 222.263 700.936 222.221 701.235 222.138L701.135 223.709C700.803 223.875 700.371 223.958 699.839 223.958C699.357 223.958 698.925 223.867 698.542 223.684C698.16 223.501 697.861 223.222 697.645 222.846C697.429 222.474 697.321 222.005 697.321 221.44V221.191L697.819 221.266C697.62 221.914 697.279 222.441 696.797 222.846C696.315 223.255 695.775 223.554 695.177 223.744C694.579 223.936 693.989 224.033 693.407 224.033C692.676 224.033 691.994 223.908 691.363 223.659C690.731 223.41 690.229 223.031 689.857 222.522C689.481 222.017 689.293 221.39 689.293 220.642C689.293 219.712 689.606 218.942 690.231 218.334C690.852 217.729 691.72 217.318 692.833 217.102L697.77 216.13V217.775L693.756 218.598C692.941 218.764 692.335 218.997 691.936 219.296C691.537 219.595 691.338 220.011 691.338 220.543C691.338 221.058 691.542 221.477 691.951 221.799C692.356 222.125 692.933 222.288 693.681 222.288C694.163 222.288 694.625 222.225 695.067 222.098C695.506 221.975 695.9 221.784 696.249 221.525C696.598 221.269 696.872 220.945 697.072 220.553C697.271 220.164 697.371 219.703 697.371 219.171ZM705.149 208.327L707.143 207.778V220.343C707.143 220.958 707.318 221.415 707.667 221.714C708.016 222.014 708.465 222.163 709.013 222.163C709.495 222.163 709.91 222.08 710.26 221.914C710.609 221.748 710.924 221.523 711.207 221.241L711.905 222.911C711.523 223.26 711.069 223.534 710.544 223.734C710.022 223.933 709.42 224.033 708.739 224.033C708.107 224.033 707.517 223.92 706.969 223.694C706.42 223.471 705.983 223.114 705.657 222.622C705.335 222.133 705.165 221.49 705.149 220.692V208.327ZM702.656 211.319H711.681V213.039H702.656V211.319ZM715.644 208.925C715.196 208.925 714.833 208.787 714.557 208.511C714.285 208.239 714.149 207.878 714.149 207.429C714.149 206.981 714.285 206.618 714.557 206.343C714.833 206.07 715.196 205.934 715.644 205.934C716.093 205.934 716.454 206.07 716.726 206.343C717.002 206.618 717.14 206.981 717.14 207.429C717.14 207.878 717.002 208.239 716.726 208.511C716.454 208.787 716.093 208.925 715.644 208.925ZM714.647 211.319H716.642V223.784H714.647V211.319ZM726.434 211.069C727.614 211.069 728.658 211.327 729.565 211.842C730.469 212.357 731.179 213.1 731.694 214.071C732.21 215.045 732.467 216.205 732.467 217.551C732.467 218.897 732.21 220.056 731.694 221.026C731.179 222 730.469 222.745 729.565 223.26C728.658 223.775 727.614 224.033 726.434 224.033C725.271 224.033 724.232 223.775 723.318 223.26C722.404 222.745 721.689 222 721.174 221.026C720.659 220.056 720.401 218.897 720.401 217.551C720.401 216.205 720.659 215.045 721.174 214.071C721.689 213.1 722.404 212.357 723.318 211.842C724.232 211.327 725.271 211.069 726.434 211.069ZM726.434 212.789C725.586 212.789 724.863 212.981 724.265 213.363C723.667 213.745 723.206 214.289 722.884 214.993C722.558 215.701 722.395 216.554 722.395 217.551C722.395 218.532 722.558 219.379 722.884 220.094C723.206 220.809 723.667 221.357 724.265 221.739C724.863 222.122 725.586 222.313 726.434 222.313C727.282 222.313 728.005 222.122 728.603 221.739C729.201 221.357 729.663 220.809 729.989 220.094C730.312 219.379 730.473 218.532 730.473 217.551C730.473 216.554 730.312 215.701 729.989 214.993C729.663 214.289 729.201 213.745 728.603 213.363C728.005 212.981 727.282 212.789 726.434 212.789ZM738.226 223.784H736.232V211.319H737.977L738.151 214.111L737.827 213.836C738.093 213.172 738.45 212.635 738.899 212.226C739.348 211.82 739.868 211.526 740.46 211.343C741.048 211.161 741.658 211.069 742.29 211.069C743.187 211.069 744.001 211.239 744.733 211.578C745.464 211.92 746.051 212.44 746.493 213.138C746.931 213.836 747.151 214.726 747.151 215.806V223.784H745.156V216.504C745.156 215.125 744.862 214.164 744.274 213.622C743.682 213.084 742.954 212.814 742.09 212.814C741.492 212.814 740.893 212.956 740.295 213.238C739.697 213.521 739.203 213.978 738.814 214.609C738.422 215.241 738.226 216.088 738.226 217.152V223.784Z" fill="#EA9937"/>
</g>
</g>
</g>
</g>
<g clip-path="url(#clip10_112_105)">
<g clip-path="url(#clip11_112_105)">
<path d="M1.0387 3.05176e-05V315.121H373.456V3.05176e-05H1.0387ZM344.81 286.478H29.685V57.2964H344.806V286.478H344.81Z" fill="#EA9937"/>
<path d="M256.107 196.052H157.461V225.007H256.107V196.052Z" fill="#EA9937"/>
<path d="M58.8416 196.048L157.409 156.888V156.806L157.461 156.829V125.724L157.409 125.747V125.665L58.8416 86.5051L58.8192 117.654L118.302 141.277L58.8192 164.903L58.8416 196.048Z" fill="#EA9937"/>
</g>
</g>
</g>
</g>
</g>
</g>
<defs>
<clipPath id="clip0_112_105">
<rect width="1000" height="315" fill="white"/>
</clipPath>
<clipPath id="clip1_112_105">
<rect width="1000" height="315" fill="white" transform="translate(-0.606079 0.0604553)"/>
</clipPath>
<clipPath id="clip2_112_105">
<rect width="996.71" height="315.121" fill="white" transform="translate(1.0387 1.52588e-05)"/>
</clipPath>
<clipPath id="clip3_112_105">
<rect width="996.71" height="315.121" fill="white" transform="translate(1.0387 1.52588e-05)"/>
</clipPath>
<clipPath id="clip4_112_105">
<rect width="602.617" height="143.166" fill="white" transform="translate(395.132 85.9775)"/>
</clipPath>
<clipPath id="clip5_112_105">
<rect width="602.617" height="143.166" fill="white" transform="translate(395.132 85.9775)"/>
</clipPath>
<clipPath id="clip6_112_105">
<rect width="599.619" height="91.8184" fill="white" transform="translate(396.631 85.9775)"/>
</clipPath>
<clipPath id="clip7_112_105">
<rect width="599.619" height="91.8184" fill="white" transform="translate(396.631 85.9775)"/>
</clipPath>
<clipPath id="clip8_112_105">
<rect width="352.036" height="23.5588" fill="white" transform="translate(395.132 205.585)"/>
</clipPath>
<clipPath id="clip9_112_105">
<rect width="352.036" height="23.5588" fill="white" transform="translate(395.132 205.585)"/>
</clipPath>
<clipPath id="clip10_112_105">
<rect width="372.417" height="315.121" fill="white" transform="translate(1.0387 1.52588e-05)"/>
</clipPath>
<clipPath id="clip11_112_105">
<rect width="372.417" height="315.121" fill="white" transform="translate(1.0387 1.52588e-05)"/>
</clipPath>
</defs>
</svg>
